<?xml version="1.0" encoding="UTF-8"?><svg id="Ebene_2" xmlns="http://www.w3.org/2000/svg" xmlns:xlink="http://www.w3.org/1999/xlink" viewBox="0 0 360.34 86.06"><defs><style>.cls-1{fill:url(#Unbenannter_Verlauf_6-2);}.cls-2{fill:url(#Unbenannter_Verlauf_6-4);}.cls-3{fill:url(#Unbenannter_Verlauf_6-5);}.cls-4{fill:url(#Unbenannter_Verlauf_6-6);}.cls-5{fill:#e50244;}.cls-6{fill:url(#Unbenannter_Verlauf_6);}.cls-7{fill:url(#Unbenannter_Verlauf_6-3);}.cls-8{fill:#1d1d1b;}</style><linearGradient id="Unbenannter_Verlauf_6" x1="2.01" y1="43.03" x2="82.1" y2="43.03" gradientUnits="userSpaceOnUse"><stop offset="0" stop-color="#f39116"/><stop offset=".5" stop-color="#cd504c"/><stop offset="1" stop-color="#e50244"/></linearGradient><linearGradient id="Unbenannter_Verlauf_6-2" x1="2.01" y1="42.7" x2="82.1" y2="42.7" xlink:href="#Unbenannter_Verlauf_6"/><linearGradient id="Unbenannter_Verlauf_6-3" x1="2.01" y1="43.03" x2="82.1" y2="43.03" xlink:href="#Unbenannter_Verlauf_6"/><linearGradient id="Unbenannter_Verlauf_6-4" x1="2.01" y1="42.7" x2="82.1" y2="42.7" xlink:href="#Unbenannter_Verlauf_6"/><linearGradient id="Unbenannter_Verlauf_6-5" x1="2.01" x2="82.1" xlink:href="#Unbenannter_Verlauf_6"/><linearGradient id="Unbenannter_Verlauf_6-6" x1="2.01" y1="43.03" x2="82.1" y2="43.03" xlink:href="#Unbenannter_Verlauf_6"/></defs><g id="Ebene_1-2"><g><g><path class="cls-6" d="M31.09,4.85l-.98,.98c3.03,10.71,4.66,23.63,4.66,37.19s-1.64,26.48-4.66,37.19l.98,.98c2.76,2.76,6.22,4.37,9.81,4.85V0c-3.59,.48-7.05,2.1-9.81,4.85Z"/><path class="cls-1" d="M12.88,23.07l-7.87,7.87c-6.68,6.68-6.68,17.51,0,24.19l7.21,7.21c1.62-6.63,2.46-13.75,2.46-21.09,0-6.28-.62-12.39-1.81-18.17Z"/><path class="cls-7" d="M21.54,41.24c0,9.36-1.29,18.42-3.73,26.68l7.61,7.61c2.23-9.03,3.63-20.08,3.63-32.51s-1.4-23.47-3.63-32.51l-6.84,6.84c1.94,7.49,2.96,15.57,2.96,23.88Z"/><path class="cls-2" d="M74.15,62.33l7.21-7.21c6.68-6.68,6.68-17.51,0-24.19l-7.87-7.87c-1.19,5.78-1.81,11.9-1.81,18.17,0,7.34,.85,14.47,2.46,21.09Z"/><path class="cls-3" d="M56.26,5.84l-.98-.98c-2.76-2.76-6.22-4.37-9.81-4.85V86.06c3.59-.48,7.05-2.1,9.81-4.85l.98-.98c-3.03-10.71-4.66-23.63-4.66-37.19s1.64-26.48,4.66-37.19Z"/><path class="cls-4" d="M60.95,75.53l7.61-7.61c-2.44-8.27-3.73-17.32-3.73-26.68,0-8.31,1.02-16.39,2.96-23.88l-6.84-6.84c-2.23,9.03-3.63,20.08-3.63,32.51s1.4,23.47,3.63,32.51Z"/></g><g><path class="cls-5" d="M106.4,34.39V7.72h10.25c5.76,0,10.44,4.67,10.44,10.44v5.8c0,5.76-4.67,10.44-10.44,10.44h-10.25Zm4.72-4.25h5.8c3.01,0,5.45-2.44,5.45-5.45v-7.27c0-3.01-2.44-5.45-5.45-5.45h-5.8V30.14Z"/><path class="cls-5" d="M139.92,28.28v-8.08c0-3.37,2.74-6.11,6.11-6.11h5.02c4.05,0,6.07,2.04,6.07,6.11v5.8h-12.68v2.67c0,.98,.8,1.78,1.78,1.78h10.13v.89c0,.97-.46,1.88-1.24,2.46h0c-.52,.39-1.16,.59-1.81,.59h-7.27c-3.37,0-6.11-2.74-6.11-6.11Zm4.52-5.92h8.2v-2.55c0-1-.81-1.82-1.82-1.82h-4.6c-1.18,0-1.78,.61-1.78,1.82v2.55Z"/><path class="cls-5" d="M170.91,33.66c-.85-.66-1.34-1.67-1.34-2.74v-.78h11.95c.94,0,1.7-.76,1.7-1.7v-2.94c0-1.01-.44-1.6-1.32-1.78l-7.85-1.55c-2.99-.62-4.48-2.64-4.48-6.07v-2.13c0-3.46,2.8-6.26,6.26-6.26h7.85c.77,0,1.53,.26,2.14,.73h0c.85,.66,1.34,1.67,1.34,2.74v.78h-11.17c-.94,0-1.7,.76-1.7,1.7v2.55c0,1.01,.44,1.6,1.32,1.78l7.85,1.55c2.99,.62,4.49,2.63,4.49,6.03v2.55c0,3.46-2.8,6.26-6.26,6.26h-8.63c-.77,0-1.53-.26-2.14-.73h0Z"/><path class="cls-5" d="M219.1,34.39V7.72h12.88c3.46,0,6.26,2.8,6.26,6.26v4.37c0,3.27-1.29,5.26-3.87,5.95l4.64,9.09,.53,1.01h-5.13l-4.95-9.78h-5.64v9.78h-4.72Zm4.72-14.03h8c.94,0,1.7-.76,1.7-1.7v-4.99c0-.94-.76-1.7-1.7-1.7h-8v8.39Z"/><path class="cls-5" d="M251.07,28.28v-8.08c0-3.37,2.74-6.11,6.11-6.11h5.02c4.05,0,6.07,2.04,6.07,6.11v5.8h-12.68v2.67c0,.98,.8,1.78,1.78,1.78h10.13v.89c0,.97-.46,1.88-1.24,2.46h0c-.52,.39-1.16,.59-1.81,.59h-7.27c-3.37,0-6.11-2.74-6.11-6.11Zm4.52-5.92h8.2v-2.55c0-1-.81-1.82-1.82-1.82h-4.6c-1.18,0-1.78,.61-1.78,1.82v2.55Z"/><path class="cls-5" d="M280.15,26.18v-3.87h11.33v3.87h-11.33Z"/><path class="cls-5" d="M304.04,34.39V7.72h5.14l11.87,19.06V7.72h4.68v26.68h-5.1l-11.87-19.06v19.06h-4.72Z"/><path class="cls-5" d="M339.65,28.13V13.98c0-3.46,2.8-6.26,6.26-6.26h10.17c.77,0,1.53,.26,2.14,.73h0c.85,.66,1.34,1.67,1.34,2.74v.78h-13.49c-.94,0-1.7,.76-1.7,1.7v14.77c0,.94,.76,1.7,1.7,1.7h9.55v-7.46h-5.64v-4.25h10.36v15.97h-14.42c-3.46,0-6.26-2.8-6.26-6.26Z"/><path class="cls-5" d="M200.62,16.53v-4.56h4.68v4.56h-4.68Zm.08,17.86v-14.03h4.52v14.03h-4.52Z"/></g><g><path class="cls-8" d="M106.94,60.01v-9.65h3.66c2.63,0,3.94,1.31,3.94,3.94v1.76c0,2.63-1.31,3.94-3.94,3.94h-3.66Zm2.01-1.82h1.76c1.21,0,1.82-.6,1.82-1.82v-2.38c0-1.21-.61-1.82-1.82-1.82h-1.76v6.01Z"/><path class="cls-8" d="M116.56,60.01v-9.65h6.6v1.82h-4.58v1.96h4.17v1.82h-4.17v2.24h4.58v1.82h-6.6Z"/><path class="cls-8" d="M124.97,62.81v-10.06h3.91c1.4,0,2.1,.7,2.1,2.1v3.08c0,1.4-.7,2.1-2.1,2.1h-2.8v2.8h-1.12Zm1.12-3.78h2.8c.65,0,.98-.33,.98-.98v-3.35c0-.65-.33-.98-.98-.98h-2.8v5.31Z"/><path class="cls-8" d="M132.99,57.92v-3.08c0-1.4,.7-2.1,2.1-2.1h1.82c1.4,0,2.1,.7,2.1,2.1v2.01h-4.89v1.2c0,.65,.33,.98,.98,.98h3.63v.56l-.56,.42h-3.08c-1.4,0-2.1-.7-2.1-2.1Zm1.12-2.04h3.77v-1.17c0-.65-.33-.98-.98-.98h-1.82c-.65,0-.98,.33-.98,.98v1.17Z"/><path class="cls-8" d="M141.13,60.01v-7.27h3.91c1.4,0,2.1,.7,2.1,2.1v5.17h-1.12v-5.31c0-.65-.33-.98-.98-.98h-2.8v6.29h-1.12Z"/><path class="cls-8" d="M149.21,57.92v-3.08c0-1.4,.7-2.1,2.1-2.1h2.8v-3.08h1.12v10.34h-3.91c-1.4,0-2.1-.7-2.1-2.1Zm1.12,.14c0,.65,.33,.98,.98,.98h2.8v-5.31h-2.8c-.65,0-.98,.33-.98,.98v3.35Z"/><path class="cls-8" d="M159.18,60.01c-1.41,0-2.11-.7-2.11-2.11s.7-2.11,2.11-2.11h2.56v-1.09c0-.65-.33-.98-.98-.98h-2.99v-.56l.56-.42h2.43c1.4,0,2.1,.7,2.1,2.1v5.17h-3.68Zm-.99-1.96c0,.65,.33,.98,.98,.98h2.57v-2.26h-2.57c-.65,0-.98,.33-.98,.98v.31Z"/><path class="cls-8" d="M165.03,60.01v-10.34h1.12v3.08h2.8c1.4,0,2.1,.7,2.1,2.1v3.08c0,1.4-.7,2.1-2.1,2.1h-3.91Zm1.12-.98h2.8c.65,0,.98-.33,.98-.98v-3.35c0-.65-.33-.98-.98-.98h-2.8v5.31Z"/><path class="cls-8" d="M173.11,58.03v-8.36h1.12v8.47c0,.64,.33,.97,.98,1.01v.98c-1.4,0-2.1-.7-2.1-2.1Z"/><path class="cls-8" d="M176.69,57.92v-3.08c0-1.4,.7-2.1,2.1-2.1h1.82c1.4,0,2.1,.7,2.1,2.1v2.01h-4.89v1.2c0,.65,.33,.98,.98,.98h3.63v.56l-.56,.42h-3.08c-1.4,0-2.1-.7-2.1-2.1Zm1.12-2.04h3.77v-1.17c0-.65-.33-.98-.98-.98h-1.82c-.65,0-.98,.33-.98,.98v1.17Z"/><path class="cls-8" d="M192.47,60.01c-1.41,0-2.11-.7-2.11-2.11s.7-2.11,2.11-2.11h2.56v-1.09c0-.65-.33-.98-.98-.98h-2.99v-.56l.56-.42h2.43c1.4,0,2.1,.7,2.1,2.1v5.17h-3.68Zm-.99-1.96c0,.65,.33,.98,.98,.98h2.57v-2.26h-2.57c-.65,0-.98,.33-.98,.98v.31Z"/><path class="cls-8" d="M198.33,60.01v-7.27h3.91c1.4,0,2.1,.7,2.1,2.1v5.17h-1.12v-5.31c0-.65-.33-.98-.98-.98h-2.79v6.29h-1.12Z"/><path class="cls-8" d="M206.41,57.92v-3.08c0-1.4,.7-2.1,2.1-2.1h2.79v-3.08h1.12v10.34h-3.91c-1.4,0-2.1-.7-2.1-2.1Zm1.12,.14c0,.65,.33,.98,.98,.98h2.79v-5.31h-2.79c-.65,0-.98,.33-.98,.98v3.35Z"/><path class="cls-8" d="M220.19,59.29v-1.09h4.33c.28,0,.42-.14,.42-.42v-1.02c0-.26-.12-.42-.35-.46l-2.73-.54c-1.12-.22-1.68-.98-1.68-2.25v-.78c0-1.57,.78-2.35,2.35-2.35h3.2l.94,.73v1.09h-4.05c-.28,0-.42,.14-.42,.42v.91c0,.26,.12,.42,.35,.46l2.73,.55c1.12,.22,1.68,.97,1.68,2.25v.9c0,1.57-.78,2.35-2.35,2.35h-3.48l-.94-.73Z"/><path class="cls-8" d="M228.69,57.92v-3.08c0-1.4,.7-2.1,2.1-2.1h1.82c1.4,0,2.1,.7,2.1,2.1v2.01h-4.89v1.2c0,.65,.33,.98,.98,.98h3.63v.56l-.56,.42h-3.08c-1.4,0-2.1-.7-2.1-2.1Zm1.12-2.04h3.77v-1.17c0-.65-.33-.98-.98-.98h-1.82c-.65,0-.98,.33-.98,.98v1.17Z"/><path class="cls-8" d="M236.71,57.92v-3.08c0-1.4,.7-2.1,2.1-2.1h2.74l.56,.42v.56h-3.3c-.65,0-.98,.33-.98,.98v3.35c0,.65,.33,.98,.98,.98h3.3v.56l-.56,.42h-2.74c-1.4,0-2.1-.7-2.1-2.1Z"/><path class="cls-8" d="M243.81,57.92v-5.17h1.12v5.31c0,.65,.33,.98,.98,.98h2.8v-6.29h1.12v7.27h-3.91c-1.4,0-2.1-.7-2.1-2.1Z"/><path class="cls-8" d="M252,60.01v-6.43c.33-.56,.93-.84,1.82-.84h1.4l.56,.42v.56h-1.96c-.32,0-.55,.08-.7,.25v6.04h-1.12Z"/><path class="cls-8" d="M257.15,57.92v-3.08c0-1.4,.7-2.1,2.1-2.1h1.82c1.4,0,2.1,.7,2.1,2.1v2.01h-4.89v1.2c0,.65,.33,.98,.98,.98h3.63v.56l-.56,.42h-3.08c-1.4,0-2.1-.7-2.1-2.1Zm1.12-2.04h3.77v-1.17c0-.65-.33-.98-.98-.98h-1.82c-.65,0-.98,.33-.98,.98v1.17Z"/><path class="cls-8" d="M271.24,60.01v-9.65h2.01v9.65h-2.01Z"/><path class="cls-8" d="M275.51,60.01v-7.27h3.91c1.4,0,2.1,.7,2.1,2.1v5.17h-1.12v-5.31c0-.65-.33-.98-.98-.98h-2.8v6.29h-1.12Z"/><path class="cls-8" d="M283.7,60.01v-8.25c0-1.4,.7-2.1,2.1-2.1h1.26l.56,.42v.56h-1.82c-.65,0-.98,.33-.98,.98v1.12h2.66v.98h-2.66v6.29h-1.12Z"/><path class="cls-8" d="M288.96,60.01v-6.43c.33-.56,.93-.84,1.82-.84h1.4l.56,.42v.56h-1.96c-.32,0-.55,.08-.7,.25v6.04h-1.12Z"/><path class="cls-8" d="M295.8,60.01c-1.41,0-2.11-.7-2.11-2.11s.7-2.11,2.11-2.11h2.56v-1.09c0-.65-.33-.98-.98-.98h-2.99v-.56l.56-.42h2.43c1.4,0,2.1,.7,2.1,2.1v5.17h-3.68Zm-.99-1.96c0,.65,.33,.98,.98,.98h2.57v-2.26h-2.57c-.65,0-.98,.33-.98,.98v.31Z"/><path class="cls-8" d="M301.37,59.59v-.56h3.21c.65,0,.98-.33,.98-.98s-.28-1.02-.84-1.12l-1.68-.28c-1.12-.19-1.68-.8-1.68-1.84,0-1.38,.7-2.07,2.1-2.07h2.32l.56,.42v.56h-2.88c-.65,0-.98,.33-.98,.98,0,.56,.28,.89,.84,.98l1.68,.28c1.12,.19,1.68,.85,1.68,1.99,0,1.38-.7,2.07-2.1,2.07h-2.65l-.56-.42Z"/><path class="cls-8" d="M308.59,57.92v-7.55h1.12v2.38h2.66v.98h-2.66v4.33c0,.65,.33,.98,.98,.98h1.82v.56l-.56,.42h-1.26c-1.4,0-2.1-.7-2.1-2.1Z"/><path class="cls-8" d="M314.07,60.01v-6.43c.33-.56,.93-.84,1.82-.84h1.4l.56,.42v.56h-1.96c-.32,0-.55,.08-.7,.25v6.04h-1.12Z"/><path class="cls-8" d="M319.27,57.92v-5.17h1.12v5.31c0,.65,.33,.98,.98,.98h2.8v-6.29h1.12v7.27h-3.91c-1.4,0-2.1-.7-2.1-2.1Z"/><path class="cls-8" d="M327.4,57.92v-3.08c0-1.4,.7-2.1,2.1-2.1h2.74l.56,.42v.56h-3.3c-.65,0-.98,.33-.98,.98v3.35c0,.65,.33,.98,.98,.98h3.3v.56l-.56,.42h-2.74c-1.4,0-2.1-.7-2.1-2.1Z"/><path class="cls-8" d="M334.5,57.92v-7.55h1.12v2.38h2.66v.98h-2.66v4.33c0,.65,.33,.98,.98,.98h1.82v.56l-.56,.42h-1.26c-1.4,0-2.1-.7-2.1-2.1Z"/><path class="cls-8" d="M339.98,57.92v-5.17h1.12v5.31c0,.65,.33,.98,.98,.98h2.8v-6.29h1.12v7.27h-3.91c-1.4,0-2.1-.7-2.1-2.1Z"/><path class="cls-8" d="M348.18,60.01v-6.43c.33-.56,.93-.84,1.82-.84h1.4l.56,.42v.56h-1.96c-.32,0-.55,.08-.7,.25v6.04h-1.12Z"/><path class="cls-8" d="M353.32,57.92v-3.08c0-1.4,.7-2.1,2.1-2.1h1.82c1.4,0,2.1,.7,2.1,2.1v2.01h-4.89v1.2c0,.65,.33,.98,.98,.98h3.63v.56l-.56,.42h-3.08c-1.4,0-2.1-.7-2.1-2.1Zm1.12-2.04h3.77v-1.17c0-.65-.33-.98-.98-.98h-1.82c-.65,0-.98,.33-.98,.98v1.17Z"/><path class="cls-8" d="M106.91,81.98v-8.25c0-1.4,.7-2.1,2.1-2.1h1.26l.56,.42v.56h-1.82c-.65,0-.98,.33-.98,.98v1.12h2.66v.98h-2.66v6.29h-1.12Z"/><path class="cls-8" d="M112.11,79.88v-3.08c0-1.4,.7-2.1,2.1-2.1h1.96c1.4,0,2.1,.7,2.1,2.1v3.08c0,1.4-.7,2.1-2.1,2.1h-1.96c-1.4,0-2.1-.7-2.1-2.1Zm1.12,.14c0,.65,.33,.98,.98,.98h1.96c.65,0,.98-.33,.98-.98v-3.35c0-.65-.33-.98-.98-.98h-1.96c-.65,0-.98,.33-.98,.98v3.35Z"/><path class="cls-8" d="M120.33,81.98v-6.43c.33-.56,.93-.84,1.82-.84h1.4l.56,.42v.56h-1.96c-.32,0-.55,.08-.7,.25v6.04h-1.12Z"/><path class="cls-8" d="M129.28,81.98v-9.65h4.7c1.57,0,2.35,.78,2.35,2.35v1.59c0,1.17-.43,1.9-1.3,2.2l1.58,3.09-.24,.42h-1.73l-1.71-3.35h-1.64v3.35h-2.01Zm2.01-5.17h2.6c.28,0,.42-.14,.42-.42v-1.82c0-.28-.14-.42-.42-.42h-2.6v2.66Z"/><path class="cls-8" d="M138.08,79.71v-2.85c0-1.51,.75-2.27,2.26-2.27h1.82c1.51,0,2.26,.75,2.26,2.27v2.15h-4.42v.84c0,.3,.15,.45,.45,.45h3.69v1.05l-.84,.63h-2.96c-1.51,0-2.26-.75-2.26-2.26Zm1.93-2.21h2.49v-.78c0-.3-.15-.45-.45-.45h-1.59c-.3,0-.45,.15-.45,.45v.78Z"/><path class="cls-8" d="M146.16,81.56v-.56h3.21c.65,0,.98-.33,.98-.98s-.28-1.02-.84-1.12l-1.68-.28c-1.12-.19-1.68-.8-1.68-1.84,0-1.38,.7-2.07,2.1-2.07h2.32l.56,.42v.56h-2.88c-.65,0-.98,.33-.98,.98,0,.56,.28,.89,.84,.98l1.68,.28c1.12,.19,1.68,.85,1.68,1.99,0,1.38-.7,2.07-2.1,2.07h-2.66l-.56-.42Z"/><path class="cls-8" d="M153.4,73.4v-1.29h1.17v1.29h-1.17Zm.03,8.58v-7.27h1.12v7.27h-1.12Z"/><path class="cls-8" d="M156.73,79.99v-8.36h1.12v8.47c0,.64,.33,.97,.98,1.01v.98c-1.4,0-2.1-.7-2.1-2.1Z"/><path class="cls-8" d="M160.39,73.4v-1.29h1.17v1.29h-1.17Zm.03,8.58v-7.27h1.12v7.27h-1.12Z"/><path class="cls-8" d="M163.66,79.88v-3.08c0-1.4,.7-2.1,2.1-2.1h1.82c1.4,0,2.1,.7,2.1,2.1v2.01h-4.89v1.2c0,.65,.33,.98,.98,.98h3.63v.56l-.56,.42h-3.08c-1.4,0-2.1-.7-2.1-2.1Zm1.12-2.04h3.77v-1.17c0-.65-.33-.98-.98-.98h-1.82c-.65,0-.98,.33-.98,.98v1.17Z"/><path class="cls-8" d="M171.8,81.98v-7.27h3.91c1.4,0,2.1,.7,2.1,2.1v5.17h-1.12v-5.31c0-.65-.33-.98-.98-.98h-2.8v6.29h-1.12Z"/><path class="cls-8" d="M179.93,79.88v-7.55h1.12v2.38h2.66v.98h-2.66v4.33c0,.65,.33,.98,.98,.98h1.82v.56l-.56,.42h-1.26c-1.4,0-2.1-.7-2.1-2.1Z"/><path class="cls-8" d="M189.16,81.98v-9.65h2.18l3.83,6.33v-6.33h2.01v9.65h-2.18l-3.83-6.33v6.33h-2.01Z"/><path class="cls-8" d="M199.34,79.88v-3.08c0-1.4,.7-2.1,2.1-2.1h1.82c1.4,0,2.1,.7,2.1,2.1v2.01h-4.89v1.2c0,.65,.33,.98,.98,.98h3.64v.56l-.56,.42h-3.08c-1.4,0-2.1-.7-2.1-2.1Zm1.12-2.04h3.78v-1.17c0-.65-.33-.98-.98-.98h-1.82c-.65,0-.98,.33-.98,.98v1.17Z"/><path class="cls-8" d="M206.77,81.77l2.57-3.49-2.47-3.35,.1-.21h1.03l1.99,2.75,1.99-2.75h1.03l.1,.21-2.47,3.35,2.57,3.49-.1,.21h-1.03l-2.08-2.89-2.08,2.89h-1.04l-.1-.21Z"/><path class="cls-8" d="M214.69,79.88v-7.55h1.12v2.38h2.66v.98h-2.66v4.33c0,.65,.33,.98,.98,.98h1.82v.56l-.56,.42h-1.26c-1.4,0-2.1-.7-2.1-2.1Z"/><path class="cls-8" d="M223.77,79.63v-4.95c0-1.57,.78-2.35,2.35-2.35h4.04l.94,.73v1.09h-4.89c-.28,0-.42,.14-.42,.42v5.17c0,.28,.14,.42,.42,.42h3.16v-2.24h-1.84v-1.82h3.86v5.87h-5.26c-1.57,0-2.35-.78-2.35-2.35Z"/><path class="cls-8" d="M233.25,79.88v-3.08c0-1.4,.7-2.1,2.1-2.1h1.82c1.4,0,2.1,.7,2.1,2.1v2.01h-4.89v1.2c0,.65,.33,.98,.98,.98h3.64v.56l-.56,.42h-3.08c-1.4,0-2.1-.7-2.1-2.1Zm1.12-2.04h3.78v-1.17c0-.65-.33-.98-.98-.98h-1.82c-.65,0-.98,.33-.98,.98v1.17Z"/><path class="cls-8" d="M241.38,81.98v-7.27h3.91c1.4,0,2.1,.7,2.1,2.1v5.17h-1.12v-5.31c0-.65-.33-.98-.98-.98h-2.8v6.29h-1.12Z"/><path class="cls-8" d="M249.46,79.88v-3.08c0-1.4,.7-2.1,2.1-2.1h1.82c1.4,0,2.1,.7,2.1,2.1v2.01h-4.89v1.2c0,.65,.33,.98,.98,.98h3.64v.56l-.56,.42h-3.08c-1.4,0-2.1-.7-2.1-2.1Zm1.12-2.04h3.78v-1.17c0-.65-.33-.98-.98-.98h-1.82c-.65,0-.98,.33-.98,.98v1.17Z"/><path class="cls-8" d="M257.54,81.98v-6.43c.33-.56,.93-.84,1.82-.84h1.4l.56,.42v.56h-1.96c-.32,0-.55,.08-.7,.25v6.04h-1.12Z"/><path class="cls-8" d="M264.38,81.98c-1.41,0-2.11-.7-2.11-2.11s.7-2.11,2.11-2.11h2.56v-1.09c0-.65-.33-.98-.98-.98h-2.99v-.56l.56-.42h2.43c1.4,0,2.1,.7,2.1,2.1v5.17h-3.68Zm-.99-1.96c0,.65,.33,.98,.98,.98h2.57v-2.26h-2.57c-.65,0-.98,.33-.98,.98v.31Z"/><path class="cls-8" d="M270.18,79.88v-7.55h1.12v2.38h2.66v.98h-2.66v4.33c0,.65,.33,.98,.98,.98h1.82v.56l-.56,.42h-1.26c-1.4,0-2.1-.7-2.1-2.1Z"/><path class="cls-8" d="M275.69,73.4v-1.29h1.17v1.29h-1.17Zm.03,8.58v-7.27h1.12v7.27h-1.12Z"/><path class="cls-8" d="M278.96,79.88v-3.08c0-1.4,.7-2.1,2.1-2.1h1.96c1.4,0,2.1,.7,2.1,2.1v3.08c0,1.4-.7,2.1-2.1,2.1h-1.96c-1.4,0-2.1-.7-2.1-2.1Zm1.12,.14c0,.65,.33,.98,.98,.98h1.96c.65,0,.98-.33,.98-.98v-3.35c0-.65-.33-.98-.98-.98h-1.96c-.65,0-.98,.33-.98,.98v3.35Z"/><path class="cls-8" d="M287.23,81.98v-7.27h3.91c1.4,0,2.1,.7,2.1,2.1v5.17h-1.12v-5.31c0-.65-.33-.98-.98-.98h-2.8v6.29h-1.12Z"/><path class="cls-8" d="M299.23,81.98v-9.65h1.3l5.07,7.83v-7.83h1.17v9.65h-1.3l-5.07-7.83v7.83h-1.17Z"/><path class="cls-8" d="M309.04,79.88v-3.08c0-1.4,.7-2.1,2.1-2.1h1.82c1.4,0,2.1,.7,2.1,2.1v2.01h-4.89v1.2c0,.65,.33,.98,.98,.98h3.63v.56l-.56,.42h-3.08c-1.4,0-2.1-.7-2.1-2.1Zm1.12-2.04h3.77v-1.17c0-.65-.33-.98-.98-.98h-1.82c-.65,0-.98,.33-.98,.98v1.17Z"/><path class="cls-8" d="M317.12,79.88v-7.55h1.12v2.38h2.66v.98h-2.66v4.33c0,.65,.33,.98,.98,.98h1.82v.56l-.56,.42h-1.26c-1.4,0-2.1-.7-2.1-2.1Z"/><path class="cls-8" d="M321.87,74.91l.14-.2h.94l1.47,6.29h.21l1.75-6.29h1.4l1.75,6.29h.21l1.47-6.29h.94l.14,.2-1.71,7.07h-1.79l-1.71-6.15-1.7,6.15h-1.79l-1.7-7.07Z"/><path class="cls-8" d="M333.61,79.88v-3.08c0-1.4,.7-2.1,2.1-2.1h1.96c1.4,0,2.1,.7,2.1,2.1v3.08c0,1.4-.7,2.1-2.1,2.1h-1.96c-1.4,0-2.1-.7-2.1-2.1Zm1.12,.14c0,.65,.33,.98,.98,.98h1.96c.65,0,.98-.33,.98-.98v-3.35c0-.65-.33-.98-.98-.98h-1.96c-.65,0-.98,.33-.98,.98v3.35Z"/><path class="cls-8" d="M341.83,81.98v-6.43c.33-.56,.93-.84,1.82-.84h1.4l.56,.42v.56h-1.96c-.32,0-.55,.08-.7,.25v6.04h-1.12Z"/><path class="cls-8" d="M347.09,81.98v-10.34h1.12v6.78l3.37-3.7h1.09l.1,.21-2.6,2.84,2.79,4.01-.1,.21h-1.09l-2.35-3.41-1.22,1.31v2.1h-1.12Z"/><path class="cls-8" d="M354.19,81.56v-.56h3.21c.65,0,.98-.33,.98-.98s-.28-1.02-.84-1.12l-1.68-.28c-1.12-.19-1.68-.8-1.68-1.84,0-1.38,.7-2.07,2.1-2.07h2.32l.56,.42v.56h-2.88c-.65,0-.98,.33-.98,.98,0,.56,.28,.89,.84,.98l1.68,.28c1.12,.19,1.68,.85,1.68,1.99,0,1.38-.7,2.07-2.1,2.07h-2.65l-.56-.42Z"/></g></g></g></svg>