<?xml version="1.0" encoding="UTF-8" standalone="no"?>
<!-- Generator: Adobe Illustrator 22.1.0, SVG Export Plug-In . SVG Version: 6.00 Build 0)  -->

<svg
   xmlns:dc="http://purl.org/dc/elements/1.1/"
   xmlns:cc="http://creativecommons.org/ns#"
   xmlns:rdf="http://www.w3.org/1999/02/22-rdf-syntax-ns#"
   xmlns:svg="http://www.w3.org/2000/svg"
   xmlns="http://www.w3.org/2000/svg"
   xmlns:sodipodi="http://sodipodi.sourceforge.net/DTD/sodipodi-0.dtd"
   xmlns:inkscape="http://www.inkscape.org/namespaces/inkscape"
   version="1.1"
   id="Ebene_1"
   x="0px"
   y="0px"
   viewBox="0 0 510.2 170.1"
   style="enable-background:new 0 0 510.2 170.1;"
   xml:space="preserve"
   sodipodi:docname="inIT_TH OWL_rot-rgb.svg"
   inkscape:version="0.92.4 (5da689c313, 2019-01-14)"><metadata
   id="metadata37"><rdf:RDF><cc:Work
       rdf:about=""><dc:format>image/svg+xml</dc:format><dc:type
         rdf:resource="http://purl.org/dc/dcmitype/StillImage" /><dc:title></dc:title></cc:Work></rdf:RDF></metadata><defs
   id="defs35" /><sodipodi:namedview
   pagecolor="#ffffff"
   bordercolor="#666666"
   borderopacity="1"
   objecttolerance="10"
   gridtolerance="10"
   guidetolerance="10"
   inkscape:pageopacity="0"
   inkscape:pageshadow="2"
   inkscape:window-width="779"
   inkscape:window-height="486"
   id="namedview33"
   showgrid="false"
   inkscape:zoom="1.1838494"
   inkscape:cx="255.10001"
   inkscape:cy="85.050003"
   inkscape:window-x="0"
   inkscape:window-y="0"
   inkscape:window-maximized="0"
   inkscape:current-layer="Ebene_1" />
<style
   type="text/css"
   id="style2">
	.st0{fill:#E50043;}
	.st1{fill:#425159;}
	.st2{fill:#2C373D;}
	.st3{fill:#A40235;}
	.st4{fill:#003C71;}
</style>
<g
   id="g20">
	<path
   class="st0"
   d="M369.6,53c0-0.9-0.5-1.5-1.5-1.5h-23.9c-0.9,0-1.5,0.5-1.5,1.5v4.4c0,0.9,0.5,1.5,1.5,1.5h7.9v34   c0,0.9,0.5,1.5,1.5,1.5h5.1c0.9,0,1.5-0.5,1.5-1.5v-34h7.9c0.9,0,1.5-0.5,1.5-1.5V53L369.6,53z M395.2,51.6c-0.9,0-1.5,0.5-1.5,1.5   V69H383V53c0-0.9-0.5-1.5-1.5-1.5h-5.1c-0.9,0-1.5,0.5-1.5,1.5V93c0,0.9,0.5,1.5,1.5,1.5h5.1c0.9,0,1.5-0.5,1.5-1.5V76.3h10.7V93   c0,0.9,0.5,1.5,1.5,1.5h5.1c0.9,0,1.5-0.5,1.5-1.5V53c0-0.9-0.5-1.5-1.5-1.5H395.2L395.2,51.6z"
   id="path4" />
	<path
   class="st0"
   d="M388.4,101.4c-9.1,0-13.4,4.8-13.4,12.7v18.8c0,8,4.3,12.7,13.4,12.7c9.1,0,13.4-4.8,13.4-12.7v-18.8   C401.8,106.2,397.5,101.4,388.4,101.4L388.4,101.4z M388.4,108.8c3.3,0,5.4,1.3,5.4,4.7v20.1c0,3.4-2.1,4.7-5.4,4.7   c-3.3,0-5.4-1.3-5.4-4.7v-20.1C383,110.1,385.1,108.8,388.4,108.8L388.4,108.8z M432,102.1c-0.9,0-1.5,0.5-1.5,1.4l-1.8,24.2   l-2.9-7.1c-0.3-0.8-0.9-1.1-1.7-1.1h-0.3c-0.8,0-1.3,0.3-1.7,1.1l-2.9,7l-1.7-24.1c-0.1-0.9-0.6-1.4-1.5-1.4h-4.7   c-1,0-1.5,0.5-1.5,1.5l2.5,39.9c0.1,0.9,0.5,1.4,1.5,1.4h3.5c0.9,0,1.4-0.4,1.7-1.2l5-13.6l5,13.6c0.3,0.8,0.9,1.2,1.7,1.2h3.5   c0.9,0,1.4-0.5,1.5-1.4l2.5-39.9c0-1-0.5-1.5-1.5-1.5H432L432,102.1z M455.4,137.6v-34c0-0.9-0.5-1.5-1.5-1.5h-5.1   c-0.9,0-1.5,0.5-1.5,1.5v39.9c0,0.9,0.5,1.5,1.5,1.5H470c0.9,0,1.5-0.5,1.5-1.5v-4.4c0-0.9-0.5-1.5-1.5-1.5H455.4L455.4,137.6z"
   id="path6" />
	<path
   class="st0"
   d="M418.4,54c-3.8,0-7.2-2.5-8.2-6.3c-1.2-4.5,1.5-9.2,6-10.4L463,24.8c4.5-1.2,9.2,1.5,10.4,6   c1.2,4.5-1.5,9.2-6,10.4l-46.8,12.5C419.9,53.9,419.1,54,418.4,54"
   id="path8" />
	<path
   class="st0"
   d="M452.6,88.3c-2.2,0-4.4-0.8-6-2.5l-34.2-34.2c-3.3-3.3-3.3-8.7,0-12c3.3-3.3,8.7-3.3,12,0l34.2,34.2   c3.3,3.3,3.3,8.7,0,12C457,87.4,454.8,88.3,452.6,88.3"
   id="path10" />
	<path
   class="st1"
   d="M452.6,88.3c-0.7,0-1.5-0.1-2.2-0.3c-4.5-1.2-7.2-5.9-6-10.4L457,30.8c1.2-4.5,5.9-7.2,10.4-6   c4.5,1.2,7.2,5.9,6,10.4L460.8,82C459.8,85.8,456.4,88.3,452.6,88.3"
   id="path12" />
	<path
   class="st2"
   d="M471.2,27c-2.1-2.1-5.2-3-8.2-2.2c0,0,0.1,0,0.1,0c-2.9,0.7-5.3,3-6.1,6L453.1,45l14.2-3.8   c3.1-0.8,5.3-3.2,6-6.1c0,0,0,0.1,0,0.1C474.2,32.2,473.3,29.1,471.2,27L471.2,27z"
   id="path14" />
	<path
   class="st3"
   d="M410.2,43.3c-0.8,2.8,0,6,2.2,8.2c0,0,0,0-0.1-0.1c2.1,2.1,5.2,3.1,8.3,2.3l14.2-3.8l-10.4-10.4   c-2.2-2.2-5.4-3-8.3-2.2c0,0,0.1,0,0.1,0C413.2,38.1,410.9,40.5,410.2,43.3"
   id="path16" />
	<path
   class="st2"
   d="M454.8,88c2.8-0.8,5.2-3,6-6c0,0,0,0.1,0,0.1c0.8-2.9,0.1-6-2.2-8.3l-10.4-10.4l-3.8,14.2   c-0.8,3.1,0.1,6.2,2.3,8.3c0,0,0,0-0.1-0.1C448.8,88,452,88.7,454.8,88"
   id="path18" />
</g>
<g
   id="g28">
	<polygon
   class="st4"
   points="146.4,61.9 171.8,61.9 154.5,144.8 129.2,144.8  "
   id="polygon22" />
	<polygon
   class="st4"
   points="278.9,24.4 273.7,48.3 222.5,48.3 201.9,144.7 177,144.7 197.3,48.3 41,48.3 46.1,24.4  "
   id="polygon24" />
	<path
   class="st1"
   d="M62,73.5l2.4-11.6H54.1l-2.4,11.6H62z M46.9,144.7l12.7-60H49.3l-12.7,60H46.9z M73,144.7l5.9-27.9   c2-9.1,5.1-15.6,9.3-19.4c4.2-3.8,9-5.6,14.4-5.6c2.7,0,4.7,0.6,6.1,1.9c1.4,1.2,2.1,2.9,2.1,4.9c0,1.8-0.4,4.5-1.3,8.2l-8.5,38   h10.3l8.2-36.2c1-4.8,1.6-8.3,1.6-10.5c0-4.4-1.4-8-4.2-10.6c-2.8-2.7-6.7-4-11.7-4c-3.7,0-7.4,0.9-11,2.8c-3.6,1.9-7.4,4.9-11.5,9   l2.2-10.5h-9.4l-12.7,60H73z"
   id="path26" />
</g>
<rect
   x="310.4"
   y="24.5"
   class="st1"
   width="2.4"
   height="120.4"
   id="rect30" />
</svg>