<?xml version="1.0" encoding="UTF-8" standalone="no"?>
<svg
   id="svg4903"
   viewBox="0 0 727 232.69112"
   version="1.1"
   sodipodi:docname="INNOZENT_LOGO.svg"
   width="727"
   height="232.69112"
   inkscape:version="1.3.2 (091e20e, 2023-11-25, custom)"
   xmlns:inkscape="http://www.inkscape.org/namespaces/inkscape"
   xmlns:sodipodi="http://sodipodi.sourceforge.net/DTD/sodipodi-0.dtd"
   xmlns="http://www.w3.org/2000/svg"
   xmlns:svg="http://www.w3.org/2000/svg">
  <sodipodi:namedview
     id="namedview11"
     pagecolor="#ffffff"
     bordercolor="#000000"
     borderopacity="0.25"
     inkscape:showpageshadow="2"
     inkscape:pageopacity="0.0"
     inkscape:pagecheckerboard="0"
     inkscape:deskcolor="#d1d1d1"
     inkscape:zoom="1.5104167"
     inkscape:cx="364.13793"
     inkscape:cy="116.52414"
     inkscape:window-width="2560"
     inkscape:window-height="1369"
     inkscape:window-x="2552"
     inkscape:window-y="-8"
     inkscape:window-maximized="1"
     inkscape:current-layer="svg4903" />
  <defs
     id="defs1">
    <style
       id="style1">.cls-1,.cls-2{fill:#0069b4;}.cls-1,.cls-3{fill-rule:evenodd;}.cls-3{fill:#f59c00;}</style>
  </defs>
  <path
     class="cls-1"
     d="m 709.44,203.96976 c 11.09,0 17.56,-5.07 17.56,-13.78 0,-9.1 -7.24,-15.07 -18.38,-15.07 -11.14,0 -17.76,5.18 -17.76,13.78 0,9.17 7.26,15.07 18.6,15.07 z m -0.33,-5.9 c -8.7,0 -14,-3.31 -14,-8.8 0,-5.19 4.92,-8.18 13.42,-8.18 8.7,0 14.08,3.31 14.08,8.7 0,5.39 -4.92,8.28 -13.51,8.28 z"
     id="path1" />
  <path
     class="cls-2"
     d="m 691.73,172.63976 c 0.88,-0.36 1.27,-0.51 2.07,-0.78 l 4.2,-1.14 28.28,-6.82 v -5.08 l -26.73,-6.34 26.73,-6.42 v -5.17 l -28.28,-6.74 c -1,-0.2 -2.9,-0.72 -4,-1 -0.78,-0.22 -1.54,-0.48 -2.29,-0.77 v 6.06 a 27.06,27.06 0 0 1 3.81,0.52 l 1.92,0.4 20.69,3.95 -26.42,6.34 v 5.08 l 26.42,6.34 -21,4.14 c -1.2,0.21 -2.76,0.46 -3.63,0.57 a 10.06,10.06 0 0 1 -1.82,0.11 v 6.79 z"
     id="path2" />
  <path
     class="cls-2"
     d="m 691.73,127.66976 a 33.92,33.92 0 0 1 5.27,-0.34 h 24.1 a 33.28,33.28 0 0 1 5.18,0.31 v -18.15 h -4.56 a 22.4,22.4 0 0 1 0.26,4.77 v 7.36 H 697 a 33.93,33.93 0 0 1 -5.23,-0.32 v 6.37 z"
     id="path3" />
  <path
     class="cls-1"
     d="m 503.27,181.10976 c -8,6.46 -17.17,10.36 -24.47,10.36 -10.71,0 -17.17,-9.17 -17.17,-24.63 v -0.85 l 1.7,-0.18 8.88,-0.33 c 2.38,0 5.78,-0.18 10,-0.18 9.67,0 19.37,0.35 26.33,0.51 l 1.54,0.18 c 0.16,-2.89 0.16,-3.91 0.16,-6 0,-25.66 -11.72,-40.44 -32.12,-40.44 -21.06,0 -34.66,17.16 -34.66,43.84 0,26.68 11.9,42.47 32.45,42.47 11.22,0 24,-5.43 35,-14.6 l -7.62,-10.15 z m -10.54,-27.18 c -3.73,-0.35 -5.94,-0.35 -16,-0.35 -5.94,0 -6.79,0 -13.77,0.17 l -1.36,0.18 c 1,-13.43 7.15,-21.57 16.5,-21.57 9,0 13.76,7 14.61,21.57 z"
     id="path4" />
  <path
     class="cls-2"
     d="m 526.67,121.47976 a 106.9,106.9 0 0 1 1,17.15 v 48.77 a 106.14,106.14 0 0 1 -1,17 h 19.72 a 105,105 0 0 1 -1.2,-17 v -39.07 c 7.14,-7.48 15.47,-12.4 21.25,-12.4 a 6.93,6.93 0 0 1 6.34,4.07 c 1,2.22 1.36,4.43 1.36,10.88 v 36.55 a 103.8,103.8 0 0 1 -1.18,17 h 19.7 a 110.76,110.76 0 0 1 -1,-17 v -40.81 c 0,-14.11 -1.2,-18.7 -5.95,-22.94 a 17.43,17.43 0 0 0 -11.89,-4.08 c -9.35,0 -19.88,4.93 -28.72,13.6 v -11.72 z"
     id="path5" />
  <path
     class="cls-2"
     d="m 604.84,133.53976 h 13.42 v 50.46 c 0,8.67 0.85,12.92 3.06,16.14 2.38,3.56 7.14,5.95 12.58,5.95 8,0 15.45,-3.4 27.19,-12.07 l -6.35,-10.69 c -6.45,5.44 -11,8 -14.27,8 -3.56,0 -4.75,-2.73 -4.75,-11.56 v -46.23 h 12.74 a 75.72,75.72 0 0 1 9.52,0.51 v -13.09 c -1.37,0.17 -2,0.17 -3.24,0.34 h -19 l 0.5,-23.79 -15.28,2.72 -2.75,21.1 h -13.37 z"
     id="path6" />
  <path
     class="cls-2"
     d="m 0,33.85976 a 108.18,108.18 0 0 1 1,17.16 v 79.18 a 106.12,106.12 0 0 1 -1,17 h 20.89 a 111,111 0 0 1 -1,-17 v -79.18 a 113.19,113.19 0 0 1 1,-17.16 z"
     id="path7" />
  <path
     class="cls-2"
     d="m 45.67,64.32976 a 108.18,108.18 0 0 1 1,17.16 v 48.76 a 108.49,108.49 0 0 1 -1,17 h 19.7 a 106.11,106.11 0 0 1 -1.18,-17 v -39.13 c 7.13,-7.47 15.45,-12.41 21.23,-12.41 a 7,7 0 0 1 6.28,4.09 c 1,2.21 1.37,4.41 1.37,10.87 v 36.53 a 103.85,103.85 0 0 1 -1.19,17 h 19.75 a 109.73,109.73 0 0 1 -1,-17 v -40.78 c 0,-14.09 -1.19,-18.69 -5.95,-22.93 a 17.43,17.43 0 0 0 -11.88,-4.08 c -9.35,0 -19.88,4.93 -28.72,13.59 v -11.67 z"
     id="path8" />
  <path
     class="cls-2"
     d="m 132.87,64.32976 a 107,107 0 0 1 1,17.16 v 48.76 a 106.13,106.13 0 0 1 -1,17 h 19.71 a 103.85,103.85 0 0 1 -1.19,-17 v -39.13 c 7.18,-7.47 15.46,-12.41 21.23,-12.41 a 7,7 0 0 1 6.35,4.09 c 1,2.21 1.35,4.41 1.35,10.87 v 36.53 a 101.69,101.69 0 0 1 -1.19,17 h 19.71 a 111,111 0 0 1 -1,-17 v -40.78 c 0,-14.09 -1.19,-18.69 -6,-22.93 a 17.5,17.5 0 0 0 -11.9,-4.08 c -9.34,0 -19.88,4.93 -28.71,13.59 v -11.67 z"
     id="path9" />
  <path
     class="cls-1"
     d="m 214.94,106.57976 c 0,25.83 13.4,42.14 35,42.14 22.61,0 36.88,-17.16 36.88,-44 0,-26 -13.6,-42.31 -34.84,-42.31 -22.26,0 -37,17.5 -37,44.17 z m 18,-1.52 c 0,-18.35 6.63,-28.9 18.22,-28.9 11.59,0 17.67,10.89 17.67,30.45 0,18 -6.46,28.21 -18.18,28.21 -11.72,0 -17.65,-10.4 -17.65,-29.76 z"
     id="path10" />
  <path
     class="cls-3"
     d="m 346.92,64.61976 v 17.76 a 53.86,53.86 0 0 1 8.6,-0.63 l 6.72,-0.21 5.66,-0.21 h 40.28 l -64.18,107 v 16.14 h 91 v -18.44 c -3.36,0.42 -4.41,0.62 -8.18,0.84 h -6.71 c -2.94,0 -5.25,0.2 -6.93,0.2 h -42.55 l 64.19,-106.55 v -15.9 z m -39.71,21.71 c 29,-62.07 81.19,-98.94 116.79,-82.3599995 35.6,16.5799995 40.91,80.2999995 12,142.3599995 -28.91,62.06 -81.19,99 -116.78,82.38 -35.59,-16.62 -40.9,-80.38 -12,-142.46 z"
     id="path11" />
</svg>
