<?xml version="1.0" encoding="UTF-8"?>
<svg id="Ebene_1" data-name="Ebene 1" xmlns="http://www.w3.org/2000/svg" viewBox="0 0 279.69 30">
  <defs>
    <style>
      .cls-1 {
        fill: #cc514a;
        stroke-width: 0px;
      }
    </style>
  </defs>
  <path class="cls-1" d="m0,30h1.09s3.48-6.07,7.53-10.2c4.05-4.13,10.83-5.57,12.49-4.3,1.93,1.47,1.92,4.8,3.68,8.18,1.47,2.83,3.14,4.33,6.43,4.81,3.8.56,9-1.73,15.35-5.18,0,0,4.64-2.55,10.73-6.43,6.09-3.88,13.2-8.58,15.46-10.48,2.27-1.9,4.05-4.06,4.39-6.4,0,0-3.77,1.73-10.05,5.61-6.29,3.88-11.55,7.39-15.49,9.63-3.94,2.24-10.17,5.49-12.35,6.15-2.18.65-5.48,1.43-8.35-.82-3.14-2.46-3.85-11.18-7.39-11.98-3.54-.79-6.19,1-10.92,4.99C7.91,17.53,1.77,25.34,0,30"/>
  <path class="cls-1" d="m102.84,25.99c-.63,0-1.24-.21-1.61-.57-.1-.1-9.73-9.66-11.7-11.56-.06-.06-.16-.04-.16.06v10.76c0,.72-.87,1.3-1.94,1.3s-1.94-.58-1.94-1.3v-11.81c0-1.22,1.46-2.23,3.25-2.26,1.35,0,2.59.47,3.66,1.47.68.63,5.19,5.09,8.49,8.36v-8.54c0-.72.87-1.3,1.94-1.3s1.94.58,1.94,1.3v12.78c0,.57-.56,1.08-1.37,1.24-.19.04-.38.06-.57.06"/>
  <path class="cls-1" d="m238.92,23.39c.27,0,6.54-.06,6.54-5.09s-6.27-5.09-6.54-5.09h-5.42c-.63.01-.86.19-.86.48v9.3c0,.21.24.4.69.4h5.58Zm0,2.6c-3.17,0-6.87-.01-6.87-.01-1.83-.03-3.28-1.04-3.28-2.26v-10.84c0-1.22,1.46-2.23,3.25-2.26.04,0,3.73-.01,6.9-.01,4.19,0,10.41,2.05,10.41,7.69s-6.23,7.69-10.41,7.69"/>
  <path class="cls-1" d="m223.91,23.39c-2.52,0-10.81-.01-13.85-.01-.46,0-.69-.19-.69-.4v-3.38c1.58,0,6.03-.01,8.6-.01,1.07,0,1.94-.58,1.94-1.3s-.87-1.3-1.94-1.3c-2.57,0-7.01,0-8.6.01v-3.33c0-.28.23-.46.86-.46,3.17,0,10.69-.01,13.17-.01,1.07,0,1.94-.58,1.94-1.3s-.87-1.3-1.94-1.3c-3.17,0-14.61.01-14.65.01-1.79.03-3.25,1.04-3.25,2.26v10.84c0,1.22,1.46,2.23,3.29,2.26,0,0,11.96.01,15.13.01,1.07,0,1.94-.58,1.94-1.3s-.87-1.3-1.94-1.3"/>
  <path class="cls-1" d="m163.59,13.22c-3.95,0-7.16,2.28-7.16,5.08s3.21,5.08,7.16,5.08,7.16-2.28,7.16-5.08-3.21-5.08-7.16-5.08m0,12.76c-6.08,0-11.03-3.45-11.03-7.68s4.95-7.68,11.03-7.68,11.03,3.44,11.03,7.68-4.95,7.68-11.03,7.68"/>
  <path class="cls-1" d="m117.75,25.99c-5.75,0-9.76-1.98-9.76-4.82v-9.27c0-.72.87-1.3,1.94-1.3s1.94.58,1.94,1.3v9.27c0,1.53,3.05,2.22,5.89,2.22s5.89-.69,5.89-2.22v-9.27c0-.72.87-1.3,1.94-1.3s1.94.58,1.94,1.3v9.27c0,2.84-4.02,4.82-9.77,4.82"/>
  <path class="cls-1" d="m254,25.99c-1.07,0-1.94-.58-1.94-1.3v-12.78c0-.72.87-1.3,1.94-1.3s1.94.58,1.94,1.3v12.78c0,.72-.87,1.3-1.94,1.3"/>
  <path class="cls-1" d="m265.43,20.07l3.62-6.47c.09-.16.33-.16.42,0l3.63,6.47h-7.67Zm14.14,4.15l-6.44-11.49c-.36-.82-1.55-2.12-3.87-2.12s-3.5,1.3-3.87,2.12l-6.43,11.49c-.37.67.13,1.42,1.13,1.67.22.06.45.08.68.08.78,0,1.52-.32,1.81-.84l1.38-2.47h10.58l1.38,2.47c.38.67,1.5,1.01,2.49.76,1-.25,1.51-1,1.13-1.67"/>
  <path class="cls-1" d="m200.36,26c-1.07,0-1.94-.58-1.94-1.3v-11.14c0-.26-.18-.28-.29-.31-.13-.03-.29.11-.41.34-.63,1.16-2.69,5.3-4.2,8.33-.65,1.29-1.19,2.38-1.47,2.94-.33.66-1.27,1.09-2.38,1.09h0c-1.11,0-2.04-.43-2.37-1.08-.28-.56-.83-1.64-1.47-2.94-1.51-3.03-3.58-7.17-4.21-8.34-.12-.23-.27-.36-.39-.35-.1,0-.31.03-.31.31v11.14c0,.72-.87,1.3-1.94,1.3s-1.94-.58-1.94-1.3v-11.17c0-1.5,1.43-2.67,3.55-2.9,2.22-.24,3.79.46,4.67,2.08.65,1.19,2.72,5.36,4.24,8.4.06.12.11.23.17.34.06-.12.12-.23.18-.35,1.51-3.04,3.59-7.2,4.24-8.39.88-1.62,2.44-2.32,4.67-2.08,2.12.23,3.55,1.4,3.55,2.9v11.17c0,.72-.87,1.3-1.94,1.3"/>
  <path class="cls-1" d="m135.6,13.2c.51,0,7.85,0,7.85,0,1.79,0,3.25.98,3.25,2.18s-1.46,2.17-3.23,2.17l-8.62-.05v-3.75c0-.34.24-.54.75-.54m11.79,5.45c1.68-.87,3.18-1.84,3.18-3.29,0-2.63-3.19-4.77-7.12-4.77h-9.22c-1.79.04-3.25,1.05-3.25,2.27v5.92h0v5.89c0,.72.87,1.3,1.94,1.3s1.94-.58,1.94-1.3v-4.58l8.6.05c.43,0,.72.08.85.12.01,0,1.09.34,1.25.97.2.8.66,2.81.85,3.64.19.83,1.35,1.23,2.32,1.1.97-.13,1.69-.71,1.5-1.5-.18-.79-.65-2.87-.86-3.68-.26-1.02-1.31-1.72-1.98-2.15"/>
</svg>